<svg id="Layer_1" data-name="Layer 1" xmlns="http://www.w3.org/2000/svg" viewBox="0 0 1200 290.39"><title>Oxydent logo_white</title><path d="M452.88,122.43q0,19.11-6.11,34.2a71.22,71.22,0,0,1-17.21,25.54A77,77,0,0,1,403,198.27a105.35,105.35,0,0,1-68.19,0,76.76,76.76,0,0,1-26.54-16.1,71.09,71.09,0,0,1-17.21-25.54q-6.1-15.1-6.11-34.2a90.83,90.83,0,0,1,6.11-34.09,70.92,70.92,0,0,1,17.21-25.65,76.94,76.94,0,0,1,26.54-16.11,105.52,105.52,0,0,1,68.19,0,77.12,77.12,0,0,1,26.54,16.11,71.05,71.05,0,0,1,17.21,25.65A90.83,90.83,0,0,1,452.88,122.43Zm-34,0a54.78,54.78,0,0,0-3.55-19.88A46.27,46.27,0,0,0,389.47,75.9,52.4,52.4,0,0,0,368.93,72,51.84,51.84,0,0,0,348.6,75.9a46.23,46.23,0,0,0-15.76,10.77,50,50,0,0,0-10.22,16A52.36,52.36,0,0,0,319,122.43a53.79,53.79,0,0,0,3.67,20.1,47.21,47.21,0,0,0,10.22,15.88,46.58,46.58,0,0,0,15.76,10.44,53.1,53.1,0,0,0,20.33,3.77,53.68,53.68,0,0,0,20.54-3.77,46.72,46.72,0,0,0,15.77-10.44,46,46,0,0,0,10.1-15.88A55.4,55.4,0,0,0,418.89,122.43Z" fill="#fff"/><path d="M537.49,90.67h38.2v1.11l-34.87,53.3,36.87,54.41v.67h-38.2l-20.21-32.87-20,32.87H460.87v-.67L498,145.08l-35.09-53.3V90.67h38.2l18.21,32.65Z" fill="#fff"/><path d="M705.62,90.45l-67.3,159H603.45l22.66-52.64-46-106.38h36l27.32,69.07L670.3,90.45Z" fill="#fff"/><path d="M831.54,44.92V200.16H802.9l-2-14q-7.78,9.78-17,12.88a60.53,60.53,0,0,1-19.44,3.11,57.33,57.33,0,0,1-22-4.11,49.61,49.61,0,0,1-28.31-29.43,66.4,66.4,0,0,1-3.89-23.32,67.09,67.09,0,0,1,4-23.87,52,52,0,0,1,11.21-18,47.7,47.7,0,0,1,17.33-11.33,61.09,61.09,0,0,1,22.1-3.88,50.41,50.41,0,0,1,18.54,3.44q8.77,3.45,15.88,12.1V44.92ZM769.36,117.1q-12.45,0-19.66,7.88t-7.22,20.32a33.44,33.44,0,0,0,1.78,11.11,25.29,25.29,0,0,0,5.22,8.88,25,25,0,0,0,8.44,6,27.9,27.9,0,0,0,11.44,2.22A40.72,40.72,0,0,0,780,172.07a26.43,26.43,0,0,0,9.55-4.78,23.82,23.82,0,0,0,6.77-8.77,31,31,0,0,0,2.56-13.22,28,28,0,0,0-2.56-12.21,26.3,26.3,0,0,0-6.77-8.88,29,29,0,0,0-9.44-5.33A33.06,33.06,0,0,0,769.36,117.1Z" fill="#fff"/><path d="M884.85,155.74q1.11,8,8.66,13.66t21.1,5.66a69,69,0,0,0,14.55-1.77A30.29,30.29,0,0,0,943,166.4l18,20a51.25,51.25,0,0,1-21.77,12.44,89.66,89.66,0,0,1-25.32,3.78,75.89,75.89,0,0,1-26.32-4.23A54.22,54.22,0,0,1,868.3,186.5a49.32,49.32,0,0,1-11.88-18.43,68.29,68.29,0,0,1-4-23.88,61.89,61.89,0,0,1,4.11-22.87,51,51,0,0,1,11.66-17.88,53.49,53.49,0,0,1,18.32-11.66,65.67,65.67,0,0,1,24.1-4.22,70.35,70.35,0,0,1,25.32,4.33,46.36,46.36,0,0,1,18.77,12.88,48.9,48.9,0,0,1,10.44,21.32q3,12.78.33,29.65Zm52-23.32a15.1,15.1,0,0,0-2.44-7.77,17.52,17.52,0,0,0-5.89-5.44,30.81,30.81,0,0,0-8.33-3.22,41.09,41.09,0,0,0-9.55-1.11q-9.78,0-16.54,4.66a23.16,23.16,0,0,0-9.22,12.88Z" fill="#fff"/><path d="M1065.86,200.16v-58q0-25.53-22.66-25.54a23.34,23.34,0,0,0-18,8,26.82,26.82,0,0,0-5.1,8.66,29.54,29.54,0,0,0-1.78,10.22v56.63H986.79V90.45h28.87l1.11,14q7.34-9.56,16.44-13.22a47.78,47.78,0,0,1,19.1-3.44,61.5,61.5,0,0,1,17.54,2.44,34.66,34.66,0,0,1,14.55,8.67q6.33,6.21,10,16.65t3.66,26.43v58.19Z" fill="#fff"/><path d="M1167.13,60.46V91.11h27.76v26.65h-28v41.31q0,8.67,4,11.66a13.85,13.85,0,0,0,8.44,3,41.19,41.19,0,0,0,6.78-.66,24.13,24.13,0,0,0,6.55-2l7.33,26.65a59.13,59.13,0,0,1-11.33,3.44,102,102,0,0,1-11.77,1.45,54.74,54.74,0,0,1-16.54-1.56,31.18,31.18,0,0,1-13.22-7,33.79,33.79,0,0,1-8.77-13.54q-3.22-8.55-3.22-21.44V117.76h-19.54V91.11h19.54V64Z" fill="#fff"/><path d="M220.92,60a7.69,7.69,0,0,0,8.31-7.94,73.48,73.48,0,0,0-1.53-12.72c-1.61-7.62-5.39-18.47-14.35-26.91A43.9,43.9,0,0,0,200,3.77,50.63,50.63,0,0,0,185,.21C183.27.07,181.52,0,179.76,0a81.23,81.23,0,0,0-23.61,3.78,106.52,106.52,0,0,0-13.23,5,134.19,134.19,0,0,0-12.22,6.51c-7.06,4-14.63,7.92-22.19,9.69a31.62,31.62,0,0,1-7.06.87,21.76,21.76,0,0,1-3.29-.24,24.4,24.4,0,0,1-9.31-3.86,92.32,92.32,0,0,1-8.11-6.2L79,14.19c-1.72-1.39-3.59-2.88-5.64-4.33a50,50,0,0,0-6.65-3.92A51.57,51.57,0,0,0,44.17.66a47.63,47.63,0,0,0-7.39.57A42.69,42.69,0,0,0,9.94,16.7,41.6,41.6,0,0,0,2.83,30.76,68.65,68.65,0,0,0,.32,45.27,188.06,188.06,0,0,0,.75,72.73c1.33,15.55,4.06,30.9,6.7,45.75l9.37,52.75c-2,.79-4.1,1.61-6.49,2.5A8.89,8.89,0,0,0,4.93,179c-1.73,5.18,2.37,9.81,7.42,10l6.16.2c2.1,14.52,4,28.75,5.66,42s4.15,27.32,10.33,39.73a47.56,47.56,0,0,0,5,8,31.78,31.78,0,0,0,8.11,7.48c.94.57,1.81,1.06,2.68,1.48a23.08,23.08,0,0,0,3.08,1.25,26,26,0,0,0,6.44,1.26q.87.06,1.74.06a23.31,23.31,0,0,0,11.93-3.18,21.23,21.23,0,0,0,3.23-2.33A19.31,19.31,0,0,0,79.45,282a26.35,26.35,0,0,0,3.36-5.68,36.49,36.49,0,0,0,2.63-10.43,96.94,96.94,0,0,0,.33-9.82c0-8.66,0-17.6,6.17-24.4A15.41,15.41,0,0,1,99.29,227a19.66,19.66,0,0,1,5.82-.86,20.71,20.71,0,0,1,4,.4,22.91,22.91,0,0,1,9.45,4.8,59.51,59.51,0,0,1,8.76,9.35l4.23,5.58,4.18,5.91c2.75,3.77,6.16,8.47,11.37,12.32a24.71,24.71,0,0,0,9.35,4.31,21.56,21.56,0,0,0,2.69.41c.6.05,1.17.07,1.73.08l.75,0a25.26,25.26,0,0,0,14.42-4.41,29.49,29.49,0,0,0,6.87-6.72,52.33,52.33,0,0,0,7.39-15,125.56,125.56,0,0,0,3.72-14.88c.43-2.19.82-4.37,1.21-6.6.46-2.56.9-5.08,1.42-7.54l3-14.17c2.59-12.5,4.95-23.79,7.53-35.33l1-4.31c1.5-6.61,2.72-11.72,3.93-16.57.22-.92.47-1.86.79-3.11s.68-2.67,1-4l10.92-49.51a7.44,7.44,0,0,0,.15-1.45,6.83,6.83,0,0,0-6.83-6.83l-153.74,0a6.88,6.88,0,0,0-6.87,6.87l0,70.41-27.4,10.73L21.28,117.3c-2.67-15-5.43-30.48-6.64-45.7a173.85,173.85,0,0,1-.31-25.29C15,37,17.24,30.22,21.06,25.45A28.61,28.61,0,0,1,39,15.32a32.68,32.68,0,0,1,5.06-.38,36.86,36.86,0,0,1,16.38,3.92c3.72,1.74,7.25,4.67,11,7.77A108,108,0,0,0,81,33.93,38.67,38.67,0,0,0,95.9,40a35.9,35.9,0,0,0,5.72.45,46,46,0,0,0,10.16-1.21C121.59,37,130.13,32.46,138.14,28A120.09,120.09,0,0,1,149,22.25,88.52,88.52,0,0,1,160.44,18a66.75,66.75,0,0,1,19-3.06c1.46,0,2.88.06,4.27.19,7.71.66,14.34,3.53,19.2,8.28,4.8,4.59,8.2,11.2,9.81,19.13a56.26,56.26,0,0,1,1.12,9.89,7.74,7.74,0,0,0,7,7.62ZM166,189c2.82,0,4.73-.75,5.85-2.3a6,6,0,0,0,1.09-4,3.42,3.42,0,0,0-1.54-2.63,6.22,6.22,0,0,0-1.44-.66,36.44,36.44,0,0,0-5.91-1.26c-.7-.11-1.4-.22-2.1-.35a121.86,121.86,0,0,0-21.46-1.71c-6.69,0-13.48.38-19.31.75-3.2.2-6.58.3-10.31.3-6.06,0-12.23-.27-18.19-.52l-3.31-.14C76.29,175.92,63,175,49.78,173.77L68.67,165H192.75l-.65,2.7C190,177.17,188,186.63,185.76,197l-3,14.11c-.59,2.68-1.09,5.32-1.63,8.21-.39,2-.77,4.06-1.19,6.06a110.72,110.72,0,0,1-3.43,13.11,37.2,37.2,0,0,1-5.35,10.77,11.66,11.66,0,0,1-7.3,4.88,10.71,10.71,0,0,1-2,.16l-1.28-.06a7,7,0,0,1-.86-.14,9.85,9.85,0,0,1-3.64-1.82c-2.9-2.16-5.61-5.77-7.87-9L144,237.24l-4.41-6a85.77,85.77,0,0,0-10.46-12A43.18,43.18,0,0,0,114,209.83a38.59,38.59,0,0,0-13.07-2.26,39.46,39.46,0,0,0-5.65.41,36.33,36.33,0,0,0-18.17,8.09,41.92,41.92,0,0,0-11.29,15.71,49.12,49.12,0,0,0-3.71,23.11l.15,1.37c.45,3.87,1.19,10.36-2.9,11.23a3.43,3.43,0,0,1-.56.05c-2.55,0-5.47-3.37-6.44-5.78-2.35-5.85-3.69-12.33-5-18.6-.48-2.35-1-4.68-1.5-7-3.65-15.68-7-31.69-10.3-47.2Zm33.3-51.57c-.25,1-.51,2-.75,2.94-1,4-2,8.16-3.12,12.73H71.23l0-60.5,138.34-.08-9.25,40.94C200,134.8,199.65,136.1,199.3,137.42Z" fill="#fff"/></svg>