<svg xmlns="http://www.w3.org/2000/svg" xmlns:se="http://svg-edit.googlecode.com" xmlns:xlink="http://www.w3.org/1999/xlink" xmlns:dc="http://purl.org/dc/elements/1.1/" xmlns:cc="http://creativecommons.org/ns#" xmlns:rdf="http://www.w3.org/1999/02/22-rdf-syntax-ns#" xmlns:inkscape="http://www.inkscape.org/namespaces/inkscape" width="1" height="1" style="">
                                    <title>my vector image</title>
                                    <!-- Created with Vector Paint - http://www.vectorpaint.yaks.com/ https://chrome.google.com/webstore/detail/hnbpdiengicdefcjecjbnjnoifekhgdo -->
                                    <rect id="backgroundrect" width="100%" height="100%" x="0" y="0" fill="#FFFFFF" stroke="none" class="" style=""/>
                                <g style="" class="currentLayer"><title>Layer 1</title><path d="M50.850112838745105,-84.91017150878906 a7.69,7.69 0 0 0 8.31,-7.94 a73.48,73.48 0 0 0 -1.53,-12.72 c-1.61,-7.62 -5.39,-18.47 -14.35,-26.91 A43.9,43.9 0 0 0 29.930112838745117,-141.14017150878905 A50.63,50.63 0 0 0 14.930112838745117,-144.70017150878905 C13.200112838745127,-144.84017150878907 11.450112838745127,-144.91017150878906 9.690112838745108,-144.91017150878906 a81.23,81.23 0 0 0 -23.61,3.7800000000000002 a106.52,106.52 0 0 0 -13.23,5 a134.19,134.19 0 0 0 -12.22,6.51 c-7.06,4 -14.63,7.92 -22.19,9.69 a31.62,31.62 0 0 1 -7.06,0.8700000000000003 a21.76,21.76 0 0 1 -3.29,-0.24000000000000007 a24.4,24.4 0 0 1 -9.31,-3.8600000000000003 a92.32,92.32 0 0 1 -8.11,-6.2 L-91.06988716125488,-130.72017150878906 c-1.7200000000000002,-1.3900000000000001 -3.59,-2.88 -5.6400000000000015,-4.33 a50,50 0 0 0 -6.65,-3.92 A51.57,51.57 0 0 0 -125.89988716125488,-144.25017150878907 a47.63,47.63 0 0 0 -7.39,0.5700000000000003 A42.69,42.69 0 0 0 -160.12988716125489,-128.21017150878907 A41.6,41.6 0 0 0 -167.2398871612549,-114.15017150878906 A68.65,68.65 0 0 0 -169.7498871612549,-99.64017150878905 A188.06,188.06 0 0 0 -169.31988716125488,-72.18017150878906 c1.33,15.55 4.06,30.9 6.7,45.75 l9.37,52.75 c-2,0.79 -4.1,1.61 -6.49,2.5 A8.89,8.89 0 0 0 -165.13988716125488,34.08982849121094 c-1.73,5.18 2.37,9.81 7.42,10 l6.16,0.2 c2.1,14.52 4,28.75 5.66,42 s4.15,27.32 10.33,39.73 a47.56,47.56 0 0 0 5,8 a31.78,31.78 0 0 0 8.11,7.48 c0.9400000000000003,0.5700000000000003 1.81,1.06 2.68,1.48 a23.08,23.08 0 0 0 3.08,1.25 a26,26 0 0 0 6.44,1.26 q0.8700000000000003,0.06000000000000003 1.7400000000000002,0.06000000000000003 a23.31,23.31 0 0 0 11.93,-3.18 a21.23,21.23 0 0 0 3.23,-2.33 A19.31,19.31 0 0 0 -90.61988716125488,137.08982849121094 a26.35,26.35 0 0 0 3.36,-5.68 a36.49,36.49 0 0 0 2.63,-10.43 a96.94,96.94 0 0 0 0.3300000000000002,-9.82 c0,-8.66 0,-17.6 6.17,-24.4 A15.41,15.41 0 0 1 -70.77988716125488,82.08982849121094 a19.66,19.66 0 0 1 5.82,-0.8600000000000003 a20.71,20.71 0 0 1 4,0.4 a22.91,22.91 0 0 1 9.45,4.8 a59.51,59.51 0 0 1 8.76,9.35 l4.23,5.58 l4.18,5.91 c2.75,3.77 6.16,8.47 11.37,12.32 a24.71,24.71 0 0 0 9.35,4.3100000000000005 a21.56,21.56 0 0 0 2.6900000000000004,0.41000000000000014 c0.6000000000000003,0.05000000000000003 1.17,0.07 1.73,0.08000000000000004 l0.7500000000000003,0 a25.26,25.26 0 0 0 14.42,-4.41 a29.49,29.49 0 0 0 6.87,-6.72 a52.33,52.33 0 0 0 7.39,-15 a125.56,125.56 0 0 0 3.72,-14.88 c0.43000000000000016,-2.19 0.8200000000000003,-4.37 1.21,-6.6 c0.46,-2.56 0.9,-5.08 1.42,-7.54 l3,-14.17 c2.59,-12.5 4.95,-23.79 7.53,-35.33 l1,-4.3100000000000005 c1.5,-6.61 2.72,-11.72 3.93,-16.57 c0.22000000000000008,-0.92 0.47000000000000014,-1.86 0.79,-3.11 s0.6800000000000006,-2.67 1,-4 l10.92,-49.51 a7.44,7.44 0 0 0 0.15000000000000008,-1.45 a6.83,6.83 0 0 0 -6.83,-6.83 l-153.74,0 a6.88,6.88 0 0 0 -6.87,6.87 l0,70.41 l-27.4,10.73 L-148.78988716125488,-27.61017150878905 c-2.67,-15 -5.43,-30.48 -6.6400000000000015,-45.7 a173.85,173.85 0 0 1 -0.31000000000000016,-25.29 C-155.06988716125488,-107.91017150878906 -152.82988716125487,-114.69017150878906 -149.00988716125488,-119.46017150878906 A28.61,28.61 0 0 1 -131.06988716125488,-129.59017150878907 a32.68,32.68 0 0 1 5.06,-0.38000000000000017 a36.86,36.86 0 0 1 16.38,3.92 c3.72,1.7400000000000002 7.25,4.67 11,7.77 A108,108 0 0 0 -89.06988716125488,-110.98017150878906 A38.67,38.67 0 0 0 -74.16988716125488,-104.91017150878906 a35.9,35.9 0 0 0 5.72,0.45 a46,46 0 0 0 10.16,-1.21 C-48.47988716125488,-107.91017150878906 -39.93988716125489,-112.45017150878905 -31.929887161254896,-116.91017150878906 A120.09,120.09 0 0 1 -21.069887161254883,-122.66017150878906 A88.52,88.52 0 0 1 -9.629887161254885,-126.91017150878906 a66.75,66.75 0 0 1 19,-3.06 c1.46,0 2.88,0.06000000000000003 4.27,0.19000000000000009 c7.71,0.6600000000000005 14.34,3.5300000000000002 19.2,8.28 c4.8,4.59 8.2,11.2 9.81,19.13 a56.26,56.26 0 0 1 1.12,9.89 a7.74,7.74 0 0 0 7,7.62 zM-4.069887161254883,44.08982849121094 c2.8200000000000003,0 4.73,-0.7500000000000003 5.85,-2.3 a6,6 0 0 0 1.09,-4 a3.42,3.42 0 0 0 -1.54,-2.63 a6.22,6.22 0 0 0 -1.44,-0.6600000000000005 a36.44,36.44 0 0 0 -5.91,-1.26 c-0.7000000000000003,-0.11000000000000004 -1.4,-0.22000000000000008 -2.1,-0.35000000000000014 a121.86,121.86 0 0 0 -21.46,-1.71 c-6.69,0 -13.48,0.38000000000000017 -19.31,0.7500000000000003 c-3.2,0.2 -6.58,0.30000000000000016 -10.31,0.30000000000000016 c-6.06,0 -12.23,-0.27 -18.19,-0.52 l-3.31,-0.14 C-93.77988716125488,31.009828491210925 -107.06988716125488,30.089828491210938 -120.28988716125488,28.859828491210948 L-101.39988716125488,20.089828491210938 H22.680112838745117 l-0.6500000000000004,2.7 C19.930112838745117,32.259828491210925 17.930112838745117,41.71982849121093 15.690112838745108,52.08982849121094 l-3,14.11 c-0.5900000000000003,2.68 -1.09,5.32 -1.6300000000000003,8.21 c-0.3900000000000002,2 -0.77,4.06 -1.19,6.06 a110.72,110.72 0 0 1 -3.43,13.11 a37.2,37.2 0 0 1 -5.35,10.77 a11.66,11.66 0 0 1 -7.3,4.88 a10.71,10.71 0 0 1 -2,0.1600000000000001 l-1.28,-0.06000000000000003 a7,7 0 0 1 -0.8600000000000003,-0.14 a9.85,9.85 0 0 1 -3.64,-1.82 c-2.9,-2.16 -5.61,-5.77 -7.87,-9 L-26.069887161254883,92.32982849121095 l-4.41,-6 a85.77,85.77 0 0 0 -10.46,-12 A43.18,43.18 0 0 0 -56.06988716125488,64.91982849121095 a38.59,38.59 0 0 0 -13.07,-2.26 a39.46,39.46 0 0 0 -5.65,0.41000000000000014 a36.33,36.33 0 0 0 -18.17,8.09 a41.92,41.92 0 0 0 -11.29,15.71 a49.12,49.12 0 0 0 -3.71,23.11 l0.15000000000000008,1.37 c0.45,3.87 1.19,10.36 -2.9,11.23 a3.43,3.43 0 0 1 -0.56,0.05000000000000003 c-2.55,0 -5.47,-3.37 -6.44,-5.78 c-2.35,-5.85 -3.6900000000000004,-12.33 -5,-18.6 c-0.48000000000000015,-2.35 -1,-4.68 -1.5,-7 c-3.6500000000000004,-15.68 -7,-31.69 -10.3,-47.2 zm33.3,-51.57 c-0.25,1 -0.51,2 -0.7500000000000003,2.94 c-1,4 -2,8.16 -3.12,12.73 H-98.83988716125488 l0,-60.5 l138.34,-0.08000000000000004 l-9.25,40.94 C29.930112838745117,-10.110171508789051 29.580112838745123,-8.810171508789068 29.23011283874513,-7.490171508789075 z" fill="#fff" class="selected" id="svg_8"/></g></svg>