<svg id="Layer_1" data-name="Layer 1" xmlns="http://www.w3.org/2000/svg" viewBox="0 0 40 40"><title>Oxydent logo_white</title><path d="M34.64,8.27a1.06,1.06,0,0,0,1.15-1.1,10.09,10.09,0,0,0-.21-1.75,7.15,7.15,0,0,0-2-3.71A6.08,6.08,0,0,0,31.77.52,7,7,0,0,0,29.69,0Q29.35,0,29,0a11.2,11.2,0,0,0-3.25.52,14.49,14.49,0,0,0-1.82.7,18.84,18.84,0,0,0-1.68.89,12.5,12.5,0,0,1-3.06,1.34,4.35,4.35,0,0,1-1,.12,2.32,2.32,0,0,1-.46,0A3.33,3.33,0,0,1,16.45,3c-.37-.24-.73-.54-1.12-.85L15.1,2c-.24-.19-.49-.39-.78-.59a5.75,5.75,0,0,0-.91-.54A7.06,7.06,0,0,0,10.3.09a6.8,6.8,0,0,0-1,.08A5.89,5.89,0,0,0,5.58,2.3a5.81,5.81,0,0,0-1,1.94,9.35,9.35,0,0,0-.34,2A24.39,24.39,0,0,0,4.32,10c.18,2.14.55,4.25.92,6.3l1.29,7.27-.9.34a1.27,1.27,0,0,0-.74.73,1.06,1.06,0,0,0,1,1.37l.85,0c.29,2,.55,4,.78,5.78A17,17,0,0,0,9,37.31a6.36,6.36,0,0,0,.68,1.1,4.3,4.3,0,0,0,1.12,1l.37.21a3,3,0,0,0,.42.17,3.89,3.89,0,0,0,.89.17h.24a3.2,3.2,0,0,0,1.64-.44,2.58,2.58,0,0,0,.45-.32,2.86,2.86,0,0,0,.38-.4,4,4,0,0,0,.46-.78A5,5,0,0,0,16,36.62,12.09,12.09,0,0,0,16,35.27a4.68,4.68,0,0,1,.85-3.36,2,2,0,0,1,1-.64,2.63,2.63,0,0,1,.8-.12,3.43,3.43,0,0,1,.56.05,3.27,3.27,0,0,1,1.3.66,8.41,8.41,0,0,1,1.2,1.29l.59.77.57.81a7.35,7.35,0,0,0,1.57,1.7,3.44,3.44,0,0,0,1.29.6l.37,0h.34a4.19,4.19,0,0,0,.68-.07,3.29,3.29,0,0,0,1.31-.54,4.14,4.14,0,0,0,.94-.93,6.92,6.92,0,0,0,1-2.07,16.89,16.89,0,0,0,.51-2.05c.06-.3.12-.6.17-.91s.12-.7.19-1l.41-1.95c.36-1.72.69-3.27,1-4.86l.13-.6c.21-.91.38-1.61.55-2.28l.1-.43c0-.18.1-.37.14-.55L35.17,12a.71.71,0,0,0,0-.2.9.9,0,0,0-.27-.66,1,1,0,0,0-.67-.28H13.07a1,1,0,0,0-.94,1v9.7L8.35,23,7.14,16.16c-.36-2.07-.74-4.2-.91-6.3a22.81,22.81,0,0,1,0-3.48,5.08,5.08,0,0,1,.92-2.87,4,4,0,0,1,2.48-1.4,3.94,3.94,0,0,1,.69,0,5,5,0,0,1,2.26.54,7.38,7.38,0,0,1,1.51,1.07c.41.33.83.68,1.31,1a5.35,5.35,0,0,0,2.06.84,5.16,5.16,0,0,0,.79.06,5.94,5.94,0,0,0,1.4-.17,13.93,13.93,0,0,0,3.63-1.54,15.75,15.75,0,0,1,1.5-.8,12.94,12.94,0,0,1,1.57-.59,9.25,9.25,0,0,1,2.62-.42,5.68,5.68,0,0,1,.59,0,4.19,4.19,0,0,1,2.64,1.14,4.94,4.94,0,0,1,1.35,2.63,7.55,7.55,0,0,1,.16,1.37,1.07,1.07,0,0,0,1,1ZM27.08,26a.91.91,0,0,0,.8-.31.81.81,0,0,0,.15-.56.46.46,0,0,0-.21-.36l-.2-.09a4.49,4.49,0,0,0-.81-.17l-.29-.05a16.65,16.65,0,0,0-3-.24c-.92,0-1.85.06-2.66.11-.44,0-.9,0-1.42,0-.83,0-1.68,0-2.5-.07l-.46,0c-1.8-.08-3.63-.2-5.45-.37l2.6-1.21H30.76l-.09.37c-.29,1.3-.57,2.61-.87,4l-.41,1.94c-.09.37-.15.74-.23,1.14s-.1.55-.16.83a16.91,16.91,0,0,1-.48,1.81,5.1,5.1,0,0,1-.73,1.48,1.6,1.6,0,0,1-1,.67,1.32,1.32,0,0,1-.27,0h-.18l-.12,0a1.41,1.41,0,0,1-.5-.26,5.24,5.24,0,0,1-1.08-1.24l-.58-.83-.61-.82A11.53,11.53,0,0,0,22,30.21a5.91,5.91,0,0,0-2.09-1.31,5.45,5.45,0,0,0-1.8-.31,4.9,4.9,0,0,0-.77.06,5,5,0,0,0-2.51,1.11,5.79,5.79,0,0,0-1.55,2.17,6.68,6.68,0,0,0-.51,3.18l0,.19c.06.53.16,1.43-.4,1.55h-.08c-.35,0-.75-.46-.89-.79a14.72,14.72,0,0,1-.68-2.57l-.21-1c-.5-2.17-1-4.37-1.42-6.51Zm4.59-7.1c0,.13-.08.27-.11.4-.14.55-.28,1.13-.43,1.76H14V12.75H33.08L31.8,18.38C31.76,18.57,31.71,18.75,31.67,18.93Z" fill="#fff"/></svg>